<?xml version="1.0" standalone="no"?>
<!DOCTYPE svg PUBLIC "-//W3C//DTD SVG 20010904//EN"
 "http://www.w3.org/TR/2001/REC-SVG-20010904/DTD/svg10.dtd">
<svg version="1.0" xmlns="http://www.w3.org/2000/svg"
 width="320.000000pt" height="320.000000pt" viewBox="0 0 320.000000 320.000000"
 preserveAspectRatio="xMidYMid meet">

<g transform="translate(0.000000,320.000000) scale(0.100000,-0.100000)"
fill="#000000" stroke="none">
<path d="M558 2383 c-420 -420 -558 -564 -558 -582 0 -15 23 -47 67 -92 54
-56 72 -69 97 -69 27 0 84 54 491 460 401 401 464 460 490 460 25 0 60 -30
232 -202 112 -112 203 -196 203 -188 0 30 60 140 99 183 l41 44 -270 269
c-230 229 -275 269 -303 272 -30 2 -63 -29 -589 -555z"/>
<path d="M1982 2419 c-64 -12 -141 -51 -192 -97 -88 -78 -130 -192 -130 -355
0 -80 -3 -102 -16 -111 -24 -18 -36 -101 -24 -164 12 -69 38 -126 84 -186 21
-27 44 -66 51 -87 36 -100 115 -194 208 -245 47 -26 61 -29 147 -29 87 0 100
3 149 30 93 51 170 143 206 244 7 21 30 60 51 87 46 60 72 117 84 186 12 63 0
146 -24 164 -13 9 -16 30 -16 101 0 100 -19 178 -53 220 -13 15 -29 47 -35 70
-24 81 -95 134 -227 168 -63 16 -192 18 -263 4z"/>
<path d="M1105 2391 c-16 -10 -220 -210 -453 -443 l-423 -424 3 -433 3 -433
24 -19 c21 -18 42 -19 278 -19 l254 0 24 25 25 24 0 316 0 316 25 24 24 25
256 0 256 0 24 -25 c18 -17 25 -35 25 -61 0 -25 4 -35 13 -31 6 3 60 24 119
47 l107 42 -19 39 c-11 21 -41 71 -66 110 -89 137 -114 263 -74 379 12 36 24
89 27 118 l6 54 -179 180 c-160 160 -215 208 -241 208 -4 0 -21 -9 -38 -19z"/>
<path d="M1560 1161 c-228 -99 -258 -117 -335 -195 -77 -78 -118 -148 -159
-270 -34 -102 -55 -258 -38 -279 17 -20 176 -71 297 -96 228 -46 367 -56 785
-56 418 0 555 10 785 56 107 22 270 73 293 92 11 9 13 28 8 84 -24 259 -150
476 -334 571 -90 47 -357 162 -375 162 -7 0 -20 -33 -31 -82 -39 -176 -127
-418 -218 -599 -49 -97 -98 -185 -108 -194 -19 -17 -21 -17 -40 0 -10 9 -59
97 -108 194 -91 181 -179 423 -218 599 -14 59 -23 82 -34 81 -8 0 -85 -31
-170 -68z"/>
<path d="M2010 989 c0 -12 5 -51 12 -86 l12 -64 75 3 76 3 11 50 c7 28 13 65
13 83 l1 32 -100 0 c-95 0 -100 -1 -100 -21z"/>
<path d="M2031 763 c-31 -127 -32 -115 13 -200 22 -43 47 -88 54 -98 12 -20
12 -20 25 -1 6 11 31 55 53 99 45 86 44 73 13 200 l-10 37 -69 0 -69 0 -10
-37z"/>
</g>
</svg>
